<svg xmlns="http://www.w3.org/2000/svg" viewBox="0 0 400 400">
  <!-- Light version: green + gold on cream / transparent -->

  <!-- Outer circle -->
  <circle cx="200" cy="200" r="181" fill="none" stroke="#1C3A28" stroke-width="6"/>

  <!-- PALM 1 — taller, background left -->
  <path d="M 158 368 C 155 310, 148 255, 145 200 C 143 165, 146 138, 152 108"
        stroke="#1C3A28" stroke-width="7" fill="none" stroke-linecap="round"/>

  <!-- Fronds Palm 1 — from apex (152, 108), length 62 -->
  <g transform="translate(152, 108)">
    <path d="M 0 0 C -7 -14, -6 -38, 0 -62 C 6 -38, 7 -14, 0 0" fill="#1C3A28" transform="rotate(0)"/>
    <path d="M 0 0 C -7 -14, -6 -38, 0 -62 C 6 -38, 7 -14, 0 0" fill="#1C3A28" transform="rotate(38)"/>
    <path d="M 0 0 C -7 -14, -6 -38, 0 -62 C 6 -38, 7 -14, 0 0" fill="#1C3A28" transform="rotate(72)"/>
    <path d="M 0 0 C -7 -14, -6 -38, 0 -62 C 6 -38, 7 -14, 0 0" fill="#1C3A28" transform="rotate(-38)"/>
    <path d="M 0 0 C -7 -14, -6 -38, 0 -62 C 6 -38, 7 -14, 0 0" fill="#1C3A28" transform="rotate(-72)"/>
    <path d="M 0 0 C -7 -14, -6 -38, 0 -62 C 6 -38, 7 -14, 0 0" fill="#1C3A28" transform="rotate(110)"/>
  </g>

  <!-- PALM 2 — shorter, foreground center-left -->
  <path d="M 183 374 C 182 338, 182 305, 183 272 C 184 245, 184 212, 186 180"
        stroke="#1C3A28" stroke-width="6" fill="none" stroke-linecap="round"/>

  <!-- Fronds Palm 2 — from apex (186, 180), length 52 -->
  <g transform="translate(186, 180)">
    <path d="M 0 0 C -6 -12, -5 -32, 0 -52 C 5 -32, 6 -12, 0 0" fill="#1C3A28" transform="rotate(-18)"/>
    <path d="M 0 0 C -6 -12, -5 -32, 0 -52 C 5 -32, 6 -12, 0 0" fill="#1C3A28" transform="rotate(14)"/>
    <path d="M 0 0 C -6 -12, -5 -32, 0 -52 C 5 -32, 6 -12, 0 0" fill="#1C3A28" transform="rotate(44)"/>
    <path d="M 0 0 C -6 -12, -5 -32, 0 -52 C 5 -32, 6 -12, 0 0" fill="#1C3A28" transform="rotate(-52)"/>
    <path d="M 0 0 C -6 -12, -5 -32, 0 -52 C 5 -32, 6 -12, 0 0" fill="#1C3A28" transform="rotate(-92)"/>
  </g>

  <!-- Ground line -->
  <path d="M 118 362 Q 168 355, 210 362" stroke="#1C3A28" stroke-width="2.5" fill="none"
        opacity="0.3" stroke-linecap="round"/>

  <!-- PALM D'OR -->
  <text
    x="295" y="204"
    text-anchor="middle"
    font-family="Georgia, 'Times New Roman', serif"
    font-size="29"
    letter-spacing="4"
    fill="#1C3A28"
  >PALM D&apos;OR</text>

  <!-- Gold divider -->
  <line x1="248" y1="217" x2="342" y2="217" stroke="#B8922E" stroke-width="0.9" opacity="0.75"/>

  <!-- DAKHLA -->
  <text
    x="295" y="236"
    text-anchor="middle"
    font-family="'Helvetica Neue', Helvetica, Arial, sans-serif"
    font-size="11"
    letter-spacing="7"
    fill="#B8922E"
  >DAKHLA</text>
</svg>
